<svg xmlns="http://www.w3.org/2000/svg" xmlns:xlink="http://www.w3.org/1999/xlink" version="1.1"
	x="0px" y="0px" viewBox="0 0 492 615" style="enable-background:new 0 0 492 492;"
	xml:space="preserve"><style type="text/css">
	.st0{fill-rule:evenodd;clip-rule:evenodd;}
</style><g><g><g><g><g><g><path class="st0" d="M264.4,165.4c-3.2,0-5.8-2.6-5.8-5.8v-14.8h-24.7v14.8c0,3.2-2.6,5.8-5.8,5.8s-5.8-2.6-5.8-5.8V139        c0-3.2,2.6-5.8,5.8-5.8h36.2c3.2,0,5.8,2.6,5.8,5.8v20.6C270.1,162.8,267.5,165.4,264.4,165.4z"/></g><g><path class="st0" d="M264.4,360.2h-36.2c-3.2,0-5.8-2.6-5.8-5.8v-20.6c0-3.2,2.6-5.8,5.8-5.8s5.8,2.6,5.8,5.8v14.8h24.7v-14.8        c0-3.2,2.6-5.8,5.8-5.8s5.8,2.6,5.8,5.8v20.6C270.1,357.7,267.5,360.2,264.4,360.2z"/></g><g><path class="st0" d="M171.9,203.7c-1.5,0-2.9-0.6-4.1-1.7l-14.6-14.6c-2.2-2.2-2.2-5.9,0-8.1l25.6-25.6c2.2-2.2,5.9-2.2,8.1,0        l14.6,14.6c2.2,2.2,2.2,5.9,0,8.1s-5.9,2.2-8.1,0l-10.5-10.5l-17.5,17.5l10.5,10.5c2.2,2.2,2.2,5.9,0,8.1        C174.8,203.1,173.3,203.7,171.9,203.7z"/></g><g><path class="st0" d="M309.6,341.5c-1.5,0-2.9-0.6-4.1-1.7L291,325.2c-2.2-2.2-2.2-5.9,0-8.1c2.2-2.2,5.9-2.2,8.1,0l10.5,10.5        l17.5-17.5l-10.5-10.5c-2.2-2.2-2.2-5.9,0-8.1c2.2-2.2,5.9-2.2,8.1,0l14.6,14.6c2.2,2.2,2.2,5.9,0,8.1l-25.6,25.6        C312.6,340.9,311.1,341.5,309.6,341.5z"/></g><g><path class="st0" d="M159.1,270.6h-20.6c-3.2,0-5.8-2.6-5.8-5.8v-36.2c0-3.2,2.6-5.8,5.8-5.8h20.6c3.2,0,5.8,2.6,5.8,5.8        s-2.6,5.8-5.8,5.8h-14.8v24.7h14.8c3.2,0,5.8,2.6,5.8,5.8S162.3,270.6,159.1,270.6z"/></g><g><path class="st0" d="M354,270.6h-20.6c-3.2,0-5.8-2.6-5.8-5.8s2.6-5.8,5.8-5.8h14.8v-24.7h-14.8c-3.2,0-5.8-2.6-5.8-5.8        s2.6-5.8,5.8-5.8H354c3.2,0,5.8,2.6,5.8,5.8v36.2C359.8,268,357.2,270.6,354,270.6z"/></g><g><path class="st0" d="M159.1,270.6h-20.6c-3.2,0-5.8-2.6-5.8-5.8v-36.2c0-3.2,2.6-5.8,5.8-5.8h20.6c3.2,0,5.8,2.6,5.8,5.8        s-2.6,5.8-5.8,5.8h-14.8v24.7h14.8c3.2,0,5.8,2.6,5.8,5.8S162.3,270.6,159.1,270.6z"/></g><g><path class="st0" d="M354,270.6h-20.6c-3.2,0-5.8-2.6-5.8-5.8s2.6-5.8,5.8-5.8h14.8v-24.7h-14.8c-3.2,0-5.8-2.6-5.8-5.8        s2.6-5.8,5.8-5.8H354c3.2,0,5.8,2.6,5.8,5.8v36.2C359.8,268,357.2,270.6,354,270.6z"/></g><g><path class="st0" d="M182.9,341.5c-1.5,0-3-0.6-4.1-1.7l-25.6-25.6c-2.2-2.2-2.2-5.9,0-8.1l14.6-14.6c2.2-2.2,5.9-2.2,8.1,0        c2.2,2.2,2.2,5.9,0,8.1l-10.5,10.5l17.5,17.5l10.5-10.5c2.2-2.2,5.9-2.2,8.1,0c2.2,2.2,2.2,5.9,0,8.1L187,339.8        C185.9,340.9,184.4,341.5,182.9,341.5z"/></g><g><path class="st0" d="M320.7,203.7c-1.5,0-2.9-0.6-4.1-1.7c-2.2-2.2-2.2-5.9,0-8.1l10.5-10.5l-17.5-17.5l-10.5,10.5        c-2.2,2.2-5.9,2.2-8.1,0c-2.2-2.2-2.2-5.9,0-8.1l14.6-14.6c2.2-2.2,5.9-2.2,8.1,0l25.6,25.6c1.1,1.1,1.7,2.5,1.7,4.1        s-0.6,3-1.7,4.1L324.7,202C323.6,203.1,322.1,203.7,320.7,203.7z"/></g><g><path class="st0" d="M295.1,178.1c-1.1,0-2.2-0.3-3.2-0.9c-8.8-5.8-18.4-9.8-28.7-11.9c-3.1-0.6-5.1-3.7-4.5-6.8        c0.6-3.1,3.7-5.1,6.8-4.5c11.7,2.4,22.7,7,32.7,13.6c2.7,1.7,3.4,5.3,1.6,8C298.8,177.2,296.9,178.1,295.1,178.1z"/></g><g><path class="st0" d="M159.1,234.4c-0.4,0-0.8,0-1.2-0.1c-3.1-0.6-5.1-3.7-4.5-6.8c2.4-11.7,7-22.7,13.6-32.7        c1.7-2.7,5.3-3.4,8-1.6c2.7,1.7,3.4,5.3,1.6,8c-5.8,8.8-9.8,18.4-11.9,28.7C164.2,232.5,161.8,234.4,159.1,234.4z"/></g><g><path class="st0" d="M333.4,234.4c-2.7,0-5.1-1.9-5.6-4.6c-2.1-10.3-6.1-19.9-11.9-28.7c-1.7-2.7-1-6.2,1.6-8        c2.7-1.7,6.2-1,8,1.6c6.6,10,11.1,21,13.6,32.7c0.6,3.1-1.4,6.2-4.5,6.8C334.2,234.4,333.8,234.4,333.4,234.4z"/></g><g><path class="st0" d="M264.4,339.6c-2.7,0-5.1-1.9-5.6-4.6c-0.6-3.1,1.4-6.2,4.5-6.8c10.3-2.1,19.9-6.1,28.7-11.9        c2.7-1.7,6.2-1,8,1.6c1.7,2.7,1,6.2-1.6,8c-10,6.6-21,11.1-32.7,13.6C265.1,339.6,264.7,339.6,264.4,339.6z"/></g><g><path class="st0" d="M171.9,301.3c-1.9,0-3.7-0.9-4.8-2.6c-6.6-10-11.1-21-13.6-32.7c-0.6-3.1,1.4-6.2,4.5-6.8        c3.1-0.6,6.2,1.4,6.8,4.5c2.1,10.3,6.1,19.9,11.9,28.7c1.7,2.7,1,6.2-1.6,8C174,301,172.9,301.3,171.9,301.3z"/></g><g><path class="st0" d="M228.2,339.6c-0.4,0-0.8,0-1.2-0.1c-11.7-2.4-22.7-7-32.7-13.6c-2.7-1.7-3.4-5.3-1.6-8        c1.7-2.7,5.3-3.4,8-1.6c8.8,5.8,18.4,9.8,28.7,11.9c3.1,0.6,5.1,3.7,4.5,6.8C233.2,337.8,230.8,339.6,228.2,339.6z"/></g><g><path class="st0" d="M320.7,301.3c-1.1,0-2.2-0.3-3.2-0.9c-2.7-1.7-3.4-5.3-1.6-8c5.8-8.8,9.8-18.4,11.9-28.7        c0.6-3.1,3.7-5.1,6.8-4.5c3.1,0.6,5.1,3.7,4.5,6.8c-2.4,11.7-7,22.7-13.6,32.7C324.4,300.4,322.5,301.3,320.7,301.3z"/></g><g><path class="st0" d="M197.5,178.1c-1.9,0-3.7-0.9-4.8-2.6c-1.7-2.7-1-6.2,1.6-8c10-6.6,21-11.1,32.7-13.6        c3.1-0.6,6.2,1.4,6.8,4.5c0.6,3.1-1.4,6.2-4.5,6.8c-10.3,2.1-19.9,6.1-28.7,11.9C199.6,177.8,198.5,178.1,197.5,178.1z"/></g></g><g><path class="st0" d="M246.3,301.3c-14.6,0-28.3-5.7-38.6-16c-10.3-10.3-16-24-16-38.6c0-14.6,5.7-28.3,16-38.6s24-16,38.6-16       s28.3,5.7,38.6,16c10.3,10.3,16,24,16,38.6c0,14.6-5.7,28.3-16,38.6C274.5,295.6,260.8,301.3,246.3,301.3L246.3,301.3z        M246.3,203.7c-23.7,0-43,19.3-43,43s19.3,43,43,43s43-19.3,43-43C289.3,223,270,203.7,246.3,203.7z"/></g><g><path class="st0" d="M239.6,266.1c-1.5,0-2.9-0.6-4.1-1.7L222.1,251c-2.2-2.2-2.2-5.9,0-8.1c2.2-2.2,5.9-2.2,8.1,0l9.3,9.3       l22.7-22.7c2.2-2.2,5.9-2.2,8.1,0c2.2,2.2,2.2,5.9,0,8.1l-26.7,26.7C242.5,265.5,241.1,266.1,239.6,266.1z"/></g></g><g><g><path class="st0" d="M84.9,345.8c-3.2,0-5.8-2.6-5.8-5.8V132.9c0-27.7,22.5-50.2,50.2-50.2h223.4c3.2,0,5.8,2.6,5.8,5.8       s-2.6,5.8-5.8,5.8H129.4c-21.3,0-38.7,17.4-38.7,38.7V340C90.7,343.2,88.1,345.8,84.9,345.8z"/></g><g><path class="st0" d="M332.5,114.5c-1.5,0-2.9-0.6-4.1-1.7c-2.2-2.2-2.2-5.9,0-8.1l16.2-16.2l-16.2-16.2c-2.2-2.2-2.2-5.9,0-8.1       c2.2-2.2,5.9-2.2,8.1,0l20.3,20.3c1.1,1.1,1.7,2.5,1.7,4.1s-0.6,3-1.7,4.1l-20.3,20.3C335.4,113.9,334,114.5,332.5,114.5z"/></g><g><path class="st0" d="M84.9,380.2c-12.7,0-23-10.3-23-23s10.3-23,23-23s23,10.3,23,23C107.9,369.9,97.6,380.2,84.9,380.2       L84.9,380.2z M84.9,345.8c-6.3,0-11.5,5.1-11.5,11.5c0,6.3,5.1,11.5,11.5,11.5s11.5-5.1,11.5-11.5       C96.4,350.9,91.2,345.8,84.9,345.8z"/></g></g><g><g><path class="st0" d="M363.1,410.8H139.8c-3.2,0-5.8-2.6-5.8-5.8s2.6-5.8,5.8-5.8h223.4c21.3,0,38.7-17.4,38.7-38.7V153.4       c0-3.2,2.6-5.8,5.8-5.8s5.8,2.6,5.8,5.8v207.1C413.4,388.3,390.8,410.8,363.1,410.8z"/></g><g><path class="st0" d="M160,431.1c-1.5,0-2.9-0.6-4.1-1.7l-20.3-20.3c-2.2-2.2-2.2-5.9,0-8.1l20.3-20.3c2.2-2.2,5.9-2.2,8.1,0       c2.2,2.2,2.2,5.9,0,8.1L147.9,405l16.2,16.2c2.2,2.2,2.2,5.9,0,8.1C163,430.5,161.5,431.1,160,431.1z"/></g><g><path class="st0" d="M407.6,159.2c-12.7,0-23-10.3-23-23c0-12.7,10.3-23,23-23s23,10.3,23,23       C430.6,148.9,420.3,159.2,407.6,159.2L407.6,159.2z M407.6,124.8c-6.3,0-11.5,5.1-11.5,11.5c0,6.3,5.1,11.5,11.5,11.5       c6.3,0,11.5-5.1,11.5-11.5C419.1,129.9,413.9,124.8,407.6,124.8z"/></g></g></g></g></g></svg>