<svg xmlns="http://www.w3.org/2000/svg" version="1.1" viewBox="-5.0 -10.0 110.0 135.0"
    style="enable-background:new 0 0 492 492;"
    xml:space="preserve">
    <path
        d="m21 70.059c3.1289 0.19922 6.1055 1.4297 8.4609 3.5l-4.082 4.082c-1.2539-1.0117-2.7773-1.6406-4.3789-1.8125zm29.461-43.629c-0.28516-0.17188-0.63672-0.17188-0.92188 0l-19.391 11.199 6.1094 3.5312 19.852-11.469zm-20.77 36 19.387 11.172v-22.93l-5.1797-3v5.8281c0.003906 0.78906-0.41406 1.5195-1.0977 1.9102-0.6875 0.39062-1.5273 0.39062-2.2109 0l-4.0703-2.3516c-0.73438-0.42188-1.1875-1.207-1.1914-2.0586v-8.2695l-6.1016-3.5195v22.398h0.003907c-0.007813 0.32812 0.17188 0.63281 0.46094 0.78906zm7.75-10.93 4.0703 2.3398c0.11328 0.070312 0.25391 0.070312 0.36719 0 0.11719-0.058594 0.1875-0.17969 0.17969-0.30859v-6.9102l-4.8867-2.8203v7.1992c0 0.19141 0.10156 0.37109 0.26953 0.46875zm5.5586-6.5 19.82-11.43-4.8203-2.8203-19.91 11.469zm11.801-32.828c0.60156 0.078125 1.1914 0.17188 1.7812 0.26953h-0.003906c0.48438 0.050782 0.92578-0.28125 1.0078-0.76172 0.082031-0.47656-0.22266-0.9375-0.69531-1.0508-0.62109-0.10938-1.2383-0.19922-1.8594-0.28125v0.003906c-0.49219-0.050781-0.93359 0.30078-1 0.78906-0.0625 0.49219 0.27734 0.94922 0.76953 1.0312zm5.2812 1.0508c0.57812 0.16016 1.1484 0.32031 1.7305 0.51172l-0.003906-0.003906c0.24219 0.12109 0.52344 0.12891 0.76953 0.027343 0.24609-0.10547 0.4375-0.3125 0.51953-0.56641 0.085938-0.25391 0.050782-0.53516-0.089844-0.76172-0.14062-0.23047-0.37109-0.38672-0.63672-0.42969-0.60156-0.19922-1.1992-0.37109-1.8086-0.53906h-0.003906c-0.23438-0.066407-0.48438-0.03125-0.69531 0.089843-0.21094 0.12109-0.36328 0.32422-0.42188 0.55859-0.125 0.48438 0.16016 0.97266 0.63672 1.1094zm-21.262 0.30859c0.57031-0.17188 1.1484-0.33984 1.7305-0.48047 0.49219-0.12891 0.79297-0.63281 0.66406-1.125-0.125-0.49609-0.62891-0.79297-1.125-0.66406-0.60938 0.16016-1.2109 0.32812-1.8086 0.51172v-0.003907c-0.23438 0.070313-0.42969 0.23438-0.54297 0.44922-0.11719 0.21484-0.14062 0.46875-0.066406 0.70312 0.14844 0.48438 0.66406 0.75781 1.1484 0.60938zm5.2383-1.2109c0.58984-0.089843 1.1914-0.17187 1.7812-0.23047 0.50391-0.054688 0.87109-0.50781 0.81641-1.0156-0.054688-0.50391-0.51172-0.87109-1.0156-0.8125-0.62109 0.070312-1.2383 0.14844-1.8594 0.25-0.26172 0.011719-0.5 0.13672-0.66406 0.33984-0.16406 0.19922-0.23438 0.46094-0.19531 0.71875 0.042969 0.25391 0.1875 0.48438 0.40234 0.625 0.21875 0.14453 0.48438 0.1875 0.73438 0.125zm5.3711-0.44922h1.7891c0.50781 0.015625 0.93359-0.38281 0.95312-0.89062 0.015625-0.50781-0.38281-0.93359-0.89062-0.94922h-1.8789-0.003906c-0.50781 0-0.91797 0.41016-0.91797 0.91797 0 0.50781 0.41016 0.92188 0.91797 0.92188zm39.57 47.57c0.14844-0.60938 0.28125-1.2188 0.39062-1.8398 0.042969-0.47266-0.28125-0.90234-0.74609-0.99219-0.46484-0.085937-0.92188 0.19531-1.0547 0.65234-0.12109 0.58984-0.23828 1.1797-0.37891 1.7617v-0.003907c-0.054688 0.25391 0.003906 0.51562 0.15234 0.72656 0.14844 0.21094 0.37891 0.35156 0.63672 0.38281 0.46094 0.058594 0.89062-0.23828 1-0.6875zm-0.92188-12.91c0.058594 0.58984 0.10156 1.1992 0.12891 1.7891h0.003907c-0.015626 0.25781 0.082031 0.51172 0.26562 0.69531 0.18359 0.18359 0.43359 0.28125 0.69141 0.26953 0.26172-0.011718 0.50391-0.12891 0.66797-0.32812 0.16406-0.19922 0.23828-0.46094 0.20312-0.71875 0-0.62109-0.058593-1.2617-0.12891-1.8789-0.011718-0.25-0.125-0.48828-0.31641-0.65234-0.1875-0.16406-0.4375-0.24609-0.6875-0.22266s-0.48047 0.14844-0.63672 0.34766c-0.15625 0.19531-0.22656 0.44922-0.19141 0.69922zm-1.8281 15.938c-0.19141 0.55859-0.39844 1.1289-0.62109 1.6914-0.18359 0.47656 0.050782 1.0117 0.52734 1.1953 0.47266 0.18359 1.0078-0.050781 1.1953-0.52734 0.23047-0.58984 0.44141-1.1797 0.64063-1.7695h-0.003907c0.16406-0.46484-0.070312-0.97656-0.52734-1.1602-0.23828-0.085938-0.5-0.078126-0.72656 0.03125-0.22656 0.10547-0.40234 0.30078-0.48438 0.53906zm1.5703-22.328c-0.44141 0.16016-0.69531 0.62109-0.58984 1.0781 0.14062 0.57812 0.26953 1.1719 0.37891 1.7617 0.046875 0.24219 0.1875 0.45703 0.39844 0.59375 0.20703 0.13672 0.46094 0.18359 0.70313 0.125 0.48828-0.10547 0.80078-0.57812 0.71094-1.0703-0.12109-0.60938-0.25-1.2305-0.39844-1.8398h-0.003907c-0.0625-0.25-0.22656-0.46484-0.45703-0.58984-0.22656-0.125-0.49609-0.14453-0.74219-0.058594zm-81.949-20v-2.6797c-0.011719-0.35156 0.24219-0.65625 0.58984-0.71094l1.5391-0.28125c0.25391-0.039062 0.46484-0.22266 0.53906-0.46875 0.23828-0.80469 0.57422-1.5781 1-2.3008 0.15234-0.23047 0.15234-0.52734 0-0.75781l-0.87891-1.2695c-0.19922-0.29297-0.16016-0.68359 0.089844-0.93359l1.8789-1.8789c0.25-0.24219 0.63281-0.27344 0.92188-0.078125l1.2695 0.87891c0.23438 0.14844 0.53516 0.14844 0.76953 0 0.72266-0.42578 1.4961-0.76172 2.3008-1 0.26562-0.070312 0.46484-0.28906 0.50781-0.55859l0.28125-1.5195v-0.003906c0.058593-0.34375 0.35937-0.59766 0.71094-0.59766h2.6094c0.35156 0 0.65234 0.25391 0.71094 0.59766l0.28906 1.5508c0.050781 0.27344 0.25391 0.49219 0.51953 0.5625 0.80469 0.23828 1.5781 0.57422 2.3008 1 0.23438 0.14844 0.53516 0.14844 0.76953 0l1.2695-0.87891v-0.003906c0.28906-0.19531 0.67188-0.16016 0.92188 0.082031l1.8789 1.8789c0.24609 0.25 0.28125 0.64062 0.078125 0.92969l-0.87891 1.2695c-0.14844 0.23438-0.14844 0.53125 0 0.76172 0.40625 0.72656 0.72266 1.5 0.94922 2.3008 0.074218 0.26953 0.29688 0.47266 0.57031 0.51953l1.5195 0.28125v-0.003906c0.34766 0.0625 0.59766 0.36328 0.58984 0.71094v2.6523c0.003907 0.34766-0.24609 0.65234-0.58984 0.71875l-1.5195 0.26953c-0.27344 0.046874-0.49609 0.25-0.57031 0.51953-0.22656 0.80078-0.54297 1.5742-0.94922 2.3008-0.14844 0.23438-0.14844 0.53516 0 0.76953l0.83203 1.2305c0.20312 0.28516 0.16797 0.67578-0.082031 0.92188l-1.8789 1.8789c-0.24609 0.25-0.63672 0.28125-0.92188 0.078125l-1.2695-0.87891c-0.23437-0.14453-0.53125-0.14453-0.76953 0-0.72266 0.42578-1.4961 0.76172-2.3008 1-0.26953 0.074219-0.46875 0.29688-0.51953 0.57031l-0.26953 1.4297c-0.0625 0.34375-0.36328 0.58984-0.71094 0.58984h-2.6602c-0.34766 0-0.64453-0.24609-0.70703-0.58984l-0.28125-1.5195c-0.042968-0.27344-0.24219-0.49609-0.51172-0.57031-0.80078-0.22656-1.5781-0.54688-2.3086-0.94922-0.23047-0.15234-0.52734-0.15234-0.76172 0l-1.2695 0.87891c-0.28516 0.20312-0.67188 0.16797-0.91797-0.078125l-1.8789-1.8828c-0.23047-0.23828-0.26562-0.59766-0.09375-0.87891l0.87891-1.2695h0.003907c0.15234-0.23438 0.15234-0.53516 0-0.76953-0.42578-0.72266-0.76172-1.4961-1-2.3008-0.039063-0.25781-0.21484-0.47266-0.46094-0.55859l-1.5195-0.26953v-0.003906c-0.35547-0.054687-0.61328-0.35938-0.60938-0.71875zm7.4102-1.3203c0 2.168 1.3047 4.1211 3.3086 4.9531 2 0.82812 4.3086 0.37109 5.8398-1.1641 1.5352-1.5312 1.9922-3.8359 1.1641-5.8398-0.83203-2.0039-2.7852-3.3086-4.9531-3.3086-2.9492 0-5.3438 2.3789-5.3594 5.3281zm73.91 9.1797h4.6914-0.003906c0.11328 0 0.21875-0.042969 0.29688-0.12109 0.078125-0.082031 0.125-0.1875 0.125-0.30078v-21.289c0-0.10937-0.046875-0.21875-0.125-0.29687-0.078125-0.078126-0.18359-0.12109-0.29688-0.12109h-4.6875c-0.23438 0-0.42188 0.1875-0.42188 0.41797v21.312c0.011719 0.22266 0.19531 0.39844 0.42188 0.39844zm-22-13c0.53906 0.23047 1.0898 0.48828 1.6289 0.75 0.44531 0.17188 0.94922-0.027344 1.1602-0.45703 0.20703-0.42969 0.050781-0.94922-0.35938-1.1914-0.55859-0.28125-1.1289-0.53906-1.7109-0.78906v-0.003906c-0.46875-0.20312-1.0117 0.007812-1.2148 0.47656-0.20312 0.46484 0.007813 1.0117 0.47656 1.2148zm14.637 13h4.6836c0.23047 0 0.42188-0.1875 0.42969-0.42188v-14.207c-0.007812-0.23438-0.19922-0.42188-0.42969-0.42188h-4.6836c-0.23047 0-0.41797 0.1875-0.41797 0.42188v14.23c0.011719 0.22266 0.19531 0.39844 0.41797 0.39844zm10.172 25.879c0-0.62891 0.089844-1.25 0.12891-1.8789 0.023438-0.50781-0.37109-0.9375-0.87891-0.96094-0.50781-0.019531-0.9375 0.37109-0.96094 0.88281 0 0.58984-0.070312 1.1914-0.12891 1.7891-0.046875 0.50781 0.32812 0.95703 0.83594 1.0039 0.50781 0.046875 0.95703-0.32812 1.0039-0.83594zm-17.539-25.879h4.6914-0.003906c0.11328 0 0.21875-0.042969 0.29687-0.12109 0.082032-0.082031 0.125-0.1875 0.125-0.30078v-7.1367c0-0.11328-0.042968-0.21875-0.125-0.29688-0.078124-0.082031-0.18359-0.125-0.29687-0.125h-4.6875c-0.23438 0-0.42188 0.1875-0.42188 0.42188v7.1602c0.011719 0.22266 0.19531 0.39844 0.42188 0.39844zm13.77 9.75c0.085937 0.24219 0.26562 0.4375 0.5 0.54297s0.50391 0.10547 0.73828 0.007812c0.44141-0.19141 0.66016-0.6875 0.5-1.1406-0.19922-0.60156-0.42188-1.1797-0.64844-1.7695-0.09375-0.23828-0.28516-0.42969-0.52344-0.51953-0.24219-0.089844-0.50781-0.078125-0.73828 0.039062-0.42578 0.21094-0.62109 0.71484-0.44922 1.1602 0.21875 0.57813 0.39062 1.1406 0.62109 1.6992zm-15.461 1.4688-19.848 11.461v22.922l19.387-11.203c0.28906-0.15625 0.46875-0.46094 0.46094-0.78906zm-17.16 49c-0.58984 0-1.1914 0.10156-1.7891 0.12109-0.50781 0.023437-0.89844 0.45703-0.875 0.96484 0.023438 0.50781 0.45703 0.89844 0.96484 0.875 0.62891 0 1.25-0.078126 1.8789-0.12891 0.25-0.015625 0.48047-0.13281 0.64453-0.32422 0.16016-0.1875 0.23828-0.4375 0.21484-0.68359-0.023438-0.25-0.14844-0.47656-0.34375-0.63281-0.19531-0.15625-0.44531-0.22266-0.69531-0.19141zm11-53.629-19.801 11.5 5.1914 3 19.852-11.461zm-16.379 53.801c-0.60156 0-1.1914-0.070313-1.7891-0.12109-0.49219-0.019531-0.91406 0.34375-0.95703 0.83594-0.046875 0.48828 0.30078 0.92578 0.78516 0.99609 0.62891 0.058594 1.25 0.10156 1.8789 0.12891 0.50781 0.023437 0.94141-0.37109 0.96094-0.87891 0.023437-0.50781-0.37109-0.94141-0.87891-0.96094zm-5.3516-0.62109c-0.57812-0.10938-1.1719-0.23828-1.75-0.37891-0.49219-0.12109-0.98828 0.18359-1.1094 0.67969-0.11719 0.49219 0.1875 0.99219 0.67969 1.1094 0.60938 0.14844 1.2305 0.28125 1.8398 0.39844 0.5 0.097656 0.98047-0.23438 1.0742-0.73438s-0.23438-0.98047-0.73438-1.0742zm-14.41-2.4609 2.3711 1.8281v0.003906c0.76953 0.56641 1.0273 1.5977 0.62109 2.4609-0.40625 0.86328-1.3633 1.3203-2.2891 1.0898l-2.9219-0.69141-0.19141 0.19922 3.793 3.8008c0.070313 0.070312 0.16797 0.10938 0.26953 0.10938 0.097656 0 0.19531-0.042969 0.25781-0.12109 2.2852-2.4062 3.6562-5.5352 3.8711-8.8477h-5.7695s-0.011719 0.12109-0.011719 0.16797zm-1.8008-6.3711 0.003906 0.003906c1.0117 1.2539 1.6367 2.7734 1.8086 4.3789h5.7695c-0.19922-3.1289-1.4297-6.1055-3.5-8.4609zm63.219 3.2188 0.003906 0.003906c-0.003906 3.6055-2.5547 6.707-6.0938 7.4062-3.5391 0.70312-7.0781-1.1953-8.4531-4.5273-1.3789-3.3359-0.20703-7.1758 2.793-9.1758 3-2.0039 6.9961-1.6055 9.543 0.94531 1.4258 1.418 2.2188 3.3438 2.2109 5.3516zm-4.375 1.8438-1.6992-1.6484h-0.003906c0.0625-0.51953-0.15234-1.0273-0.55859-1.3516v-4.4219c0-0.50781-0.41016-0.91797-0.92188-0.91797-0.50781 0-0.91797 0.41016-0.91797 0.91797v4.4219c-0.48828 0.39453-0.67969 1.0547-0.47266 1.6484s0.76172 0.99609 1.3906 1h0.19922l1.7109 1.6484v0.003906c0.35938 0.35938 0.94141 0.35938 1.3008 0 0.17188-0.17578 0.26563-0.41406 0.25781-0.65625-0.003906-0.24609-0.10938-0.47656-0.28516-0.64453zm8.6211-1.8008h-0.003906c0 4.7773-2.8789 9.0859-7.293 10.914-4.4141 1.8242-9.4922 0.8125-12.871-2.5664-3.375-3.3789-4.3828-8.4609-2.5547-12.875 1.832-4.4102 6.1406-7.2852 10.918-7.2812 6.5078 0 11.785 5.2656 11.801 11.77zm-2.3984 0h-0.003906c0.011719-4.4961-3.1562-8.3711-7.5625-9.2539-4.4102-0.88281-8.8242 1.4766-10.543 5.6289-1.7188 4.1562-0.25781 8.9453 3.4844 11.434 3.7422 2.4883 8.7227 1.9844 11.891-1.207 1.7539-1.7656 2.7383-4.1523 2.7305-6.6406zm-27.672 3.6016c-0.55859 0.21875-1.1211 0.42969-1.6914 0.62109-0.48047 0.16406-0.73828 0.6875-0.57031 1.168 0.16406 0.48047 0.6875 0.73438 1.168 0.57031 0.58984-0.19922 1.1797-0.42188 1.7617-0.64844 0.24219-0.078125 0.44141-0.25391 0.54688-0.48438 0.10938-0.22656 0.11719-0.49219 0.027344-0.72656-0.09375-0.23828-0.28125-0.42578-0.51563-0.51953-0.23437-0.09375-0.5-0.089844-0.73047 0.019531zm-5.1406 1.6211c-0.57031 0.14062-1.1719 0.26172-1.75 0.37109v-0.003907c-0.5 0.09375-0.83203 0.57422-0.73828 1.0742s0.57812 0.83203 1.0781 0.73828c0.60938-0.12109 1.2383-0.25 1.8398-0.39844v-0.003906c0.25391-0.035157 0.48438-0.17969 0.63281-0.39453 0.14453-0.21484 0.19141-0.48047 0.13281-0.73047-0.0625-0.25391-0.22656-0.46875-0.45313-0.59375-0.23047-0.125-0.5-0.14453-0.74219-0.058594zm-29.152 1.3789c0.027344-0.074219 0.007813-0.15625-0.050781-0.21094l-5.25-4c-0.078125 1.0898-0.55859 2.1133-1.3477 2.8711l6.4609 1.4609h-0.003906c0.085937 0.011719 0.16797-0.039063 0.19141-0.12109zm-18.531-28.281c0.054688 0.25 0.21094 0.46484 0.43359 0.59766 0.21875 0.12891 0.48438 0.16016 0.72656 0.089843 0.24609-0.074219 0.44922-0.24609 0.5625-0.47266 0.11719-0.23047 0.12891-0.49609 0.039062-0.73438-0.14844-0.57031-0.28906-1.1602-0.42188-1.7383-0.050781-0.24609-0.19922-0.45703-0.41016-0.58984-0.21094-0.12891-0.46484-0.17188-0.70703-0.11328-0.48438 0.125-0.78125 0.60547-0.67969 1.0898 0.14453 0.64062 0.29688 1.2656 0.45703 1.8711zm1.8281 5.3281 0.003906 0.003906c0.19922 0.46875 0.74219 0.6875 1.2109 0.48828 0.46875-0.19922 0.6875-0.74219 0.48828-1.2109-0.23828-0.55078-0.46094-1.1016-0.67188-1.6719l0.003906 0.003907c-0.082031-0.23828-0.25391-0.43359-0.48047-0.53906-0.22656-0.10547-0.48438-0.11719-0.71875-0.03125-0.23438 0.089844-0.42188 0.26953-0.51953 0.5-0.097656 0.23047-0.10156 0.48828-0.003906 0.71875 0.22266 0.58203 0.44922 1.1719 0.69141 1.7422zm-1.7383-10.102v0.003906c0.44141-0.12109 0.72656-0.54688 0.67188-1-0.078125-0.58984-0.12891-1.1992-0.17969-1.7891 0-0.25781-0.10937-0.5-0.29687-0.67188-0.1875-0.17578-0.4375-0.26172-0.69531-0.24219-0.25391 0.019531-0.48828 0.14453-0.64844 0.34375-0.15625 0.19922-0.22656 0.45703-0.19141 0.71094 0 0.62109 0.10156 1.25 0.17969 1.8711l0.003906-0.003906c0.027344 0.26953 0.17188 0.51172 0.39453 0.66406 0.22656 0.14844 0.50391 0.19141 0.76172 0.11719zm-1.3281-8.2773c0 0.62109-0.070312 1.25-0.078125 1.8711 0 0.50781 0.41016 0.92188 0.91797 0.92188 0.50781 0 0.92188-0.41406 0.92188-0.92188 0-0.60156 0-1.1992 0.078125-1.7891 0.019531-0.25-0.0625-0.5-0.23047-0.6875-0.16406-0.1875-0.39844-0.30078-0.64844-0.3125-0.25391-0.015625-0.5 0.078125-0.67969 0.25-0.18359 0.17578-0.28516 0.41797-0.28125 0.66797zm2.2812-8.0898c0.23438 0.082032 0.49609 0.066406 0.71875-0.046875 0.22656-0.11328 0.39453-0.3125 0.46875-0.55078 0.17188-0.57031 0.37109-1.1406 0.57031-1.6992v-0.003906c0.17578-0.47656-0.070312-1.0039-0.55078-1.1797-0.47656-0.17188-1.0039 0.074218-1.1797 0.55078-0.21094 0.58984-0.41016 1.1797-0.60156 1.7812h0.003907c-0.15234 0.46484 0.085937 0.96875 0.53906 1.1484zm1.2188 39.559-4.1016-4.0781c-2.0742 2.3516-3.3047 5.3281-3.5 8.4609h5.7617c0.17578-1.6016 0.80078-3.1211 1.8086-4.3789zm6.6016 2.7188v0.003906c-1.0469 0-1.9844 0.62891-2.3867 1.5938-0.39844 0.96094-0.17578 2.0742 0.5625 2.8086 0.73438 0.73828 1.8477 0.96094 2.8086 0.5625 0.96484-0.40234 1.5938-1.3398 1.5938-2.3867 0-0.6875-0.27734-1.3477-0.76563-1.832-0.49219-0.48438-1.1562-0.75391-1.8438-0.74609zm-0.92187-11.602v0.003906c-3.125 0.19922-6.0977 1.4297-8.4492 3.5l4.0703 4.0781v0.003906c1.2578-1.0078 2.7773-1.6367 4.3789-1.8125zm-7.4883 15.102-5.793 0.003906c0.21094 3.3086 1.5781 6.4375 3.8633 8.8398 0.0625 0.078125 0.15625 0.12109 0.25781 0.12109 0.10156 0 0.19922-0.039063 0.26953-0.10938l3.5391-3.5508c0.070313-0.070313 0.10938-0.16016 0.10938-0.25781 0-0.09375-0.039062-0.1875-0.10938-0.25391-1.2148-1.3242-1.9727-3.0039-2.168-4.7891zm-0.92188-43.281c-0.12891 0.60938-0.25 1.2305-0.35156 1.8516l0.003906 0.003907c-0.082031 0.50391 0.26172 0.97266 0.76172 1.0547 0.50391 0.078125 0.97656-0.26172 1.0547-0.76562 0.10156-0.60156 0.19922-1.1797 0.32812-1.7695h0.003906c0.0625-0.24219 0.023438-0.50391-0.10937-0.71875-0.13281-0.21094-0.34766-0.36328-0.59766-0.41406-0.24609-0.050782-0.50391 0.003906-0.71094 0.14844-0.20703 0.14453-0.34375 0.36328-0.38281 0.61328z" />
</svg>