<svg xmlns="http://www.w3.org/2000/svg" version="1.1" viewBox="-5.0 -10.0 110.0 135.0"
    style="enable-background:new 0 0 492 492;"
    xml:space="preserve">
    <path
        d="m80.402 14.523c-0.55859-0.21094-13.883-5.1484-30.402-5.1484s-29.844 4.9375-30.402 5.1484c-0.43359 0.16406-0.71875 0.57812-0.71875 1.0391v46.109c0 9.6484 5.7422 18.312 14.629 22.07l16.062 6.793c0.13672 0.058594 0.28516 0.089844 0.43359 0.089844 0.14844 0 0.29297-0.027344 0.43359-0.089844l16.062-6.793c8.8867-3.7578 14.629-12.422 14.629-22.07l-0.003906-46.109c0-0.46094-0.28516-0.87891-0.71875-1.0391zm-1.5039 47.148c0 8.7539-5.2109 16.613-13.27 20.023l-15.629 6.6094-15.629-6.6094c-8.0625-3.4102-13.27-11.27-13.27-20.023l-0.003906-45.32c2.9883-1.0195 14.91-4.7539 28.902-4.7539 13.977 0 25.91 3.7344 28.902 4.7539v45.324zm-46.648-45.332c-0.29688 0.0625-0.55469 0.23828-0.71484 0.49609-0.16016 0.25781-0.21094 0.56641-0.14062 0.85937 0.13281 0.53125 0.19922 1.0586 0.19922 1.5664 0 3.5977-2.9258 6.5273-6.5273 6.5273-0.61328 0-1.1094 0.49609-1.1094 1.1094v34.777c0 7.6055 4.5234 14.43 11.527 17.391l14.086 5.957c0.13672 0.058593 0.28516 0.089843 0.43359 0.089843 0.14844 0 0.29297-0.027343 0.43359-0.089843l14.086-5.957c7.0039-2.9609 11.527-9.7891 11.527-17.391v-34.777c0-0.61328-0.49609-1.1094-1.1094-1.1094-3.5977 0-6.5273-2.9258-6.5273-6.5273 0-0.50391 0.066407-1.0312 0.19922-1.5664 0.070313-0.29297 0.023438-0.60547-0.14062-0.85937-0.16016-0.25391-0.41797-0.43359-0.71484-0.49609-6.0938-1.2539-12.066-1.8867-17.75-1.8867-5.6875 0-11.656 0.63281-17.75 1.8867zm41.574 11.598v33.734c0 6.7109-3.9922 12.734-10.172 15.348l-13.652 5.7734-13.652-5.7734c-6.1797-2.6133-10.172-8.6367-10.172-15.348v-33.734c4.3008-0.54688 7.6367-4.2305 7.6367-8.6797 0-0.31641-0.019531-0.63281-0.054688-0.95703 5.5781-1.082 11.035-1.6289 16.242-1.6289s10.664 0.54688 16.242 1.6289c-0.039063 0.32422-0.054688 0.64062-0.054688 0.95703 0 4.4453 3.3359 8.1289 7.6367 8.6797zm-23.824 1.8516c-11.145 0-20.211 9.0664-20.211 20.211s9.0664 20.211 20.211 20.211 20.211-9.0664 20.211-20.211-9.0664-20.211-20.211-20.211zm0 38.203c-9.9219 0-17.992-8.0703-17.992-17.992s8.0703-17.992 17.992-17.992 17.992 8.0703 17.992 17.992-8.0703 17.992-17.992 17.992zm8.043-27.453-10.391 10.391-5.6914-5.6914c-0.43359-0.43359-1.1367-0.43359-1.5703 0l-3.5898 3.5898c-0.20703 0.20703-0.32422 0.49219-0.32422 0.78516s0.11719 0.57812 0.32422 0.78516l10.066 10.066c0.20703 0.20703 0.49219 0.32422 0.78516 0.32422 0.29297 0 0.57812-0.11719 0.78516-0.32422l14.77-14.77c0.20703-0.20703 0.32422-0.49219 0.32422-0.78516 0-0.29297-0.11719-0.57812-0.32422-0.78516l-3.5898-3.5898c-0.43359-0.43359-1.1367-0.43359-1.5703 0zm-10.391 17.574-8.4961-8.4961 2.0195-2.0195 5.6914 5.6914c0.43359 0.43359 1.1367 0.43359 1.5703 0l10.391-10.391 2.0195 2.0195-13.199 13.199z" />
</svg>